<mxfile host="app.diagrams.net" agent="Mozilla/5.0 (Macintosh; Intel Mac OS X 10_15_7) AppleWebKit/537.36 (KHTML, like Gecko) Chrome/132.0.0.0 Safari/537.36" version="26.0.11">
  <diagram name="Page-1" id="0GxulKRwbjqq-FXsvkDo">
    <mxGraphModel dx="1127" dy="679" grid="1" gridSize="10" guides="1" tooltips="1" connect="1" arrows="1" fold="1" page="1" pageScale="1" pageWidth="850" pageHeight="1100" math="0" shadow="0">
      <root>
        <mxCell id="0" />
        <mxCell id="1" parent="0" />
        <mxCell id="sSUMm38XoAkTfJ4uzzct-13" value="" style="rounded=1;whiteSpace=wrap;html=1;" vertex="1" parent="1">
          <mxGeometry x="99" y="60" width="180" height="140" as="geometry" />
        </mxCell>
        <mxCell id="sSUMm38XoAkTfJ4uzzct-1" value="" style="sketch=0;points=[[0,0,0],[0.25,0,0],[0.5,0,0],[0.75,0,0],[1,0,0],[0,1,0],[0.25,1,0],[0.5,1,0],[0.75,1,0],[1,1,0],[0,0.25,0],[0,0.5,0],[0,0.75,0],[1,0.25,0],[1,0.5,0],[1,0.75,0]];outlineConnect=0;fontColor=#232F3E;fillColor=#7AA116;strokeColor=#ffffff;dashed=0;verticalLabelPosition=bottom;verticalAlign=top;align=center;html=1;fontSize=12;fontStyle=0;aspect=fixed;shape=mxgraph.aws4.resourceIcon;resIcon=mxgraph.aws4.s3;" vertex="1" parent="1">
          <mxGeometry x="140" y="280" width="78" height="78" as="geometry" />
        </mxCell>
        <mxCell id="sSUMm38XoAkTfJ4uzzct-2" value="" style="sketch=0;points=[[0,0,0],[0.25,0,0],[0.5,0,0],[0.75,0,0],[1,0,0],[0,1,0],[0.25,1,0],[0.5,1,0],[0.75,1,0],[1,1,0],[0,0.25,0],[0,0.5,0],[0,0.75,0],[1,0.25,0],[1,0.5,0],[1,0.75,0]];outlineConnect=0;fontColor=#232F3E;fillColor=#E7157B;strokeColor=#ffffff;dashed=0;verticalLabelPosition=bottom;verticalAlign=top;align=center;html=1;fontSize=12;fontStyle=0;aspect=fixed;shape=mxgraph.aws4.resourceIcon;resIcon=mxgraph.aws4.eventbridge;" vertex="1" parent="1">
          <mxGeometry x="320" y="280" width="78" height="78" as="geometry" />
        </mxCell>
        <mxCell id="sSUMm38XoAkTfJ4uzzct-3" value="" style="aspect=fixed;sketch=0;html=1;dashed=0;whitespace=wrap;verticalLabelPosition=bottom;verticalAlign=top;fillColor=#2875E2;strokeColor=#ffffff;points=[[0.005,0.63,0],[0.1,0.2,0],[0.9,0.2,0],[0.5,0,0],[0.995,0.63,0],[0.72,0.99,0],[0.5,1,0],[0.28,0.99,0]];shape=mxgraph.kubernetes.icon2;prIcon=secret" vertex="1" parent="1">
          <mxGeometry x="620" y="81" width="50" height="48" as="geometry" />
        </mxCell>
        <mxCell id="sSUMm38XoAkTfJ4uzzct-4" value="" style="sketch=0;points=[[0,0,0],[0.25,0,0],[0.5,0,0],[0.75,0,0],[1,0,0],[0,1,0],[0.25,1,0],[0.5,1,0],[0.75,1,0],[1,1,0],[0,0.25,0],[0,0.5,0],[0,0.75,0],[1,0.25,0],[1,0.5,0],[1,0.75,0]];outlineConnect=0;fontColor=#232F3E;fillColor=#8C4FFF;strokeColor=#ffffff;dashed=0;verticalLabelPosition=bottom;verticalAlign=top;align=center;html=1;fontSize=12;fontStyle=0;aspect=fixed;shape=mxgraph.aws4.resourceIcon;resIcon=mxgraph.aws4.glue;" vertex="1" parent="1">
          <mxGeometry x="490" y="280" width="78" height="78" as="geometry" />
        </mxCell>
        <mxCell id="sSUMm38XoAkTfJ4uzzct-6" value="" style="sketch=0;points=[[0,0,0],[0.25,0,0],[0.5,0,0],[0.75,0,0],[1,0,0],[0,1,0],[0.25,1,0],[0.5,1,0],[0.75,1,0],[1,1,0],[0,0.25,0],[0,0.5,0],[0,0.75,0],[1,0.25,0],[1,0.5,0],[1,0.75,0]];outlineConnect=0;fontColor=#232F3E;fillColor=#C925D1;strokeColor=#ffffff;dashed=0;verticalLabelPosition=bottom;verticalAlign=top;align=center;html=1;fontSize=12;fontStyle=0;aspect=fixed;shape=mxgraph.aws4.resourceIcon;resIcon=mxgraph.aws4.rds;" vertex="1" parent="1">
          <mxGeometry x="670" y="280" width="78" height="78" as="geometry" />
        </mxCell>
        <mxCell id="sSUMm38XoAkTfJ4uzzct-9" value="" style="sketch=0;pointerEvents=1;shadow=0;dashed=0;html=1;strokeColor=none;labelPosition=center;verticalLabelPosition=bottom;verticalAlign=top;outlineConnect=0;align=center;shape=mxgraph.office.concepts.folder;fillColor=#7FBA42;" vertex="1" parent="1">
          <mxGeometry x="200" y="70" width="50" height="45" as="geometry" />
        </mxCell>
        <mxCell id="sSUMm38XoAkTfJ4uzzct-10" value="" style="sketch=0;pointerEvents=1;shadow=0;dashed=0;html=1;strokeColor=none;labelPosition=center;verticalLabelPosition=bottom;verticalAlign=top;outlineConnect=0;align=center;shape=mxgraph.office.concepts.folder;fillColor=#7FBA42;" vertex="1" parent="1">
          <mxGeometry x="120" y="70" width="50" height="45" as="geometry" />
        </mxCell>
        <mxCell id="sSUMm38XoAkTfJ4uzzct-11" value="" style="sketch=0;pointerEvents=1;shadow=0;dashed=0;html=1;strokeColor=none;labelPosition=center;verticalLabelPosition=bottom;verticalAlign=top;outlineConnect=0;align=center;shape=mxgraph.office.concepts.folder;fillColor=#7FBA42;" vertex="1" parent="1">
          <mxGeometry x="120" y="130" width="50" height="45" as="geometry" />
        </mxCell>
        <mxCell id="sSUMm38XoAkTfJ4uzzct-12" value="" style="sketch=0;pointerEvents=1;shadow=0;dashed=0;html=1;strokeColor=none;labelPosition=center;verticalLabelPosition=bottom;verticalAlign=top;outlineConnect=0;align=center;shape=mxgraph.office.concepts.folder;fillColor=#7FBA42;" vertex="1" parent="1">
          <mxGeometry x="200" y="130" width="50" height="45" as="geometry" />
        </mxCell>
        <mxCell id="sSUMm38XoAkTfJ4uzzct-14" style="edgeStyle=orthogonalEdgeStyle;rounded=0;orthogonalLoop=1;jettySize=auto;html=1;entryX=-0.06;entryY=0.438;entryDx=0;entryDy=0;entryPerimeter=0;startArrow=classic;startFill=1;exitX=0.75;exitY=0;exitDx=0;exitDy=0;exitPerimeter=0;" edge="1" parent="1" source="sSUMm38XoAkTfJ4uzzct-4" target="sSUMm38XoAkTfJ4uzzct-3">
          <mxGeometry relative="1" as="geometry">
            <mxPoint x="520" y="270" as="sourcePoint" />
            <Array as="points">
              <mxPoint x="549" y="102" />
            </Array>
          </mxGeometry>
        </mxCell>
        <mxCell id="sSUMm38XoAkTfJ4uzzct-15" style="edgeStyle=orthogonalEdgeStyle;rounded=0;orthogonalLoop=1;jettySize=auto;html=1;entryX=0;entryY=0.5;entryDx=0;entryDy=0;entryPerimeter=0;" edge="1" parent="1" source="sSUMm38XoAkTfJ4uzzct-1" target="sSUMm38XoAkTfJ4uzzct-2">
          <mxGeometry relative="1" as="geometry" />
        </mxCell>
        <mxCell id="sSUMm38XoAkTfJ4uzzct-16" style="edgeStyle=orthogonalEdgeStyle;rounded=0;orthogonalLoop=1;jettySize=auto;html=1;entryX=0;entryY=0.5;entryDx=0;entryDy=0;entryPerimeter=0;" edge="1" parent="1" source="sSUMm38XoAkTfJ4uzzct-2" target="sSUMm38XoAkTfJ4uzzct-4">
          <mxGeometry relative="1" as="geometry" />
        </mxCell>
        <mxCell id="sSUMm38XoAkTfJ4uzzct-17" style="edgeStyle=orthogonalEdgeStyle;rounded=0;orthogonalLoop=1;jettySize=auto;html=1;entryX=0;entryY=0.5;entryDx=0;entryDy=0;entryPerimeter=0;" edge="1" parent="1" source="sSUMm38XoAkTfJ4uzzct-4" target="sSUMm38XoAkTfJ4uzzct-6">
          <mxGeometry relative="1" as="geometry" />
        </mxCell>
        <mxCell id="sSUMm38XoAkTfJ4uzzct-18" style="edgeStyle=orthogonalEdgeStyle;rounded=0;orthogonalLoop=1;jettySize=auto;html=1;entryX=0.444;entryY=1;entryDx=0;entryDy=0;entryPerimeter=0;" edge="1" parent="1" source="sSUMm38XoAkTfJ4uzzct-1" target="sSUMm38XoAkTfJ4uzzct-13">
          <mxGeometry relative="1" as="geometry" />
        </mxCell>
        <mxCell id="sSUMm38XoAkTfJ4uzzct-19" value="" style="sketch=0;points=[[0,0,0],[0.25,0,0],[0.5,0,0],[0.75,0,0],[1,0,0],[0,1,0],[0.25,1,0],[0.5,1,0],[0.75,1,0],[1,1,0],[0,0.25,0],[0,0.5,0],[0,0.75,0],[1,0.25,0],[1,0.5,0],[1,0.75,0]];outlineConnect=0;fontColor=#232F3E;fillColor=#E7157B;strokeColor=#ffffff;dashed=0;verticalLabelPosition=bottom;verticalAlign=top;align=center;html=1;fontSize=12;fontStyle=0;aspect=fixed;shape=mxgraph.aws4.resourceIcon;resIcon=mxgraph.aws4.sqs;" vertex="1" parent="1">
          <mxGeometry x="490" y="460" width="78" height="78" as="geometry" />
        </mxCell>
        <mxCell id="sSUMm38XoAkTfJ4uzzct-20" style="edgeStyle=orthogonalEdgeStyle;rounded=0;orthogonalLoop=1;jettySize=auto;html=1;entryX=0.5;entryY=0;entryDx=0;entryDy=0;entryPerimeter=0;" edge="1" parent="1" source="sSUMm38XoAkTfJ4uzzct-4" target="sSUMm38XoAkTfJ4uzzct-19">
          <mxGeometry relative="1" as="geometry" />
        </mxCell>
        <mxCell id="sSUMm38XoAkTfJ4uzzct-21" value="A" style="text;html=1;align=center;verticalAlign=middle;whiteSpace=wrap;rounded=0;strokeColor=default;" vertex="1" parent="1">
          <mxGeometry x="85" y="304" width="35" height="30" as="geometry" />
        </mxCell>
        <mxCell id="sSUMm38XoAkTfJ4uzzct-22" value="B" style="text;html=1;align=center;verticalAlign=middle;whiteSpace=wrap;rounded=0;strokeColor=default;" vertex="1" parent="1">
          <mxGeometry x="50" y="108" width="35" height="30" as="geometry" />
        </mxCell>
        <mxCell id="sSUMm38XoAkTfJ4uzzct-23" value="C" style="text;html=1;align=center;verticalAlign=middle;whiteSpace=wrap;rounded=0;strokeColor=default;" vertex="1" parent="1">
          <mxGeometry x="341.5" y="242" width="35" height="30" as="geometry" />
        </mxCell>
        <mxCell id="sSUMm38XoAkTfJ4uzzct-24" value="D" style="text;html=1;align=center;verticalAlign=middle;whiteSpace=wrap;rounded=0;strokeColor=default;" vertex="1" parent="1">
          <mxGeometry x="450" y="274" width="35" height="30" as="geometry" />
        </mxCell>
        <mxCell id="sSUMm38XoAkTfJ4uzzct-25" value="E" style="text;html=1;align=center;verticalAlign=middle;whiteSpace=wrap;rounded=0;strokeColor=default;" vertex="1" parent="1">
          <mxGeometry x="680" y="90" width="35" height="30" as="geometry" />
        </mxCell>
        <mxCell id="sSUMm38XoAkTfJ4uzzct-26" value="F" style="text;html=1;align=center;verticalAlign=middle;whiteSpace=wrap;rounded=0;strokeColor=default;" vertex="1" parent="1">
          <mxGeometry x="700" y="242" width="35" height="30" as="geometry" />
        </mxCell>
        <mxCell id="sSUMm38XoAkTfJ4uzzct-27" value="G" style="text;html=1;align=center;verticalAlign=middle;whiteSpace=wrap;rounded=0;strokeColor=default;" vertex="1" parent="1">
          <mxGeometry x="580" y="484" width="35" height="30" as="geometry" />
        </mxCell>
        <mxCell id="sSUMm38XoAkTfJ4uzzct-28" style="edgeStyle=orthogonalEdgeStyle;rounded=0;orthogonalLoop=1;jettySize=auto;html=1;entryX=1.011;entryY=0.45;entryDx=0;entryDy=0;entryPerimeter=0;startArrow=classic;startFill=1;" edge="1" parent="1" source="sSUMm38XoAkTfJ4uzzct-4" target="sSUMm38XoAkTfJ4uzzct-13">
          <mxGeometry relative="1" as="geometry">
            <Array as="points">
              <mxPoint x="529" y="123" />
            </Array>
          </mxGeometry>
        </mxCell>
      </root>
    </mxGraphModel>
  </diagram>
</mxfile>
